<svg xmlns="http://www.w3.org/2000/svg" xmlns:xlink="http://www.w3.org/1999/xlink" width="500" zoomAndPan="magnify" viewBox="0 0 375 374.999991" height="500" preserveAspectRatio="xMidYMid meet" version="1.0"><defs><clipPath id="131bfcc7d3"><path d="M 37.5 37.5 L 337.5 37.5 L 337.5 337.5 L 37.5 337.5 Z M 37.5 37.5 " clip-rule="nonzero"/></clipPath></defs><g clip-path="url(#131bfcc7d3)"><path fill="#3584e4" d="M 187.511719 41.398438 C 106.953125 41.398438 41.414062 106.9375 41.414062 187.492188 C 41.414062 268.050781 106.953125 333.589844 187.511719 333.589844 C 268.070312 333.589844 333.609375 268.050781 333.609375 187.492188 C 333.609375 106.9375 268.070312 41.398438 187.511719 41.398438 Z M 187.511719 337.488281 C 104.804688 337.488281 37.515625 270.203125 37.515625 187.492188 C 37.515625 104.785156 104.804688 37.5 187.511719 37.5 C 270.21875 37.5 337.503906 104.785156 337.503906 187.492188 C 337.503906 270.203125 270.21875 337.488281 187.511719 337.488281 " fill-opacity="1" fill-rule="nonzero"/></g></svg>