<svg xmlns="http://www.w3.org/2000/svg" xmlns:xlink="http://www.w3.org/1999/xlink" width="500" zoomAndPan="magnify" viewBox="0 0 375 374.999991" height="500" preserveAspectRatio="xMidYMid meet" version="1.0"><defs><clipPath id="5057e1e011"><path d="M 37.5 86.757812 L 337.5 86.757812 L 337.5 288.507812 L 37.5 288.507812 Z M 37.5 86.757812 " clip-rule="nonzero"/></clipPath></defs><g clip-path="url(#5057e1e011)"><path fill="#3584e4" d="M 334.136719 288.242188 L 40.867188 288.242188 C 40.4375 288.242188 40.023438 288.160156 39.625 287.996094 C 39.230469 287.828125 38.878906 287.59375 38.574219 287.292969 C 38.269531 286.988281 38.035156 286.636719 37.871094 286.238281 C 37.707031 285.84375 37.625 285.429688 37.625 285 L 37.625 90 C 37.625 89.570312 37.707031 89.15625 37.871094 88.757812 C 38.035156 88.359375 38.269531 88.011719 38.574219 87.707031 C 38.878906 87.402344 39.230469 87.167969 39.625 87.003906 C 40.023438 86.839844 40.4375 86.757812 40.867188 86.757812 L 334.136719 86.757812 C 334.566406 86.757812 334.980469 86.839844 335.378906 87.003906 C 335.773438 87.167969 336.125 87.402344 336.429688 87.707031 C 336.734375 88.011719 336.96875 88.359375 337.132812 88.757812 C 337.296875 89.15625 337.378906 89.570312 337.378906 90 L 337.378906 285 C 337.378906 285.429688 337.296875 285.84375 337.132812 286.238281 C 336.96875 286.636719 336.734375 286.988281 336.429688 287.292969 C 336.125 287.59375 335.773438 287.828125 335.378906 287.996094 C 334.980469 288.160156 334.566406 288.242188 334.136719 288.242188 Z M 44.109375 281.757812 L 330.894531 281.757812 L 330.894531 93.242188 L 44.109375 93.242188 Z M 44.109375 281.757812 " fill-opacity="1" fill-rule="nonzero"/></g></svg>