<svg xmlns="http://www.w3.org/2000/svg" xmlns:xlink="http://www.w3.org/1999/xlink" width="500" zoomAndPan="magnify" viewBox="0 0 375 374.999991" height="500" preserveAspectRatio="xMidYMid meet" version="1.0"><defs><clipPath id="51c8151e79"><path d="M 37 37.5 L 338 37.5 L 338 337.5 L 37 337.5 Z M 37 37.5 " clip-rule="nonzero"/></clipPath></defs><g clip-path="url(#51c8151e79)"><path fill="#3584e4" d="M 37.226562 330.386719 L 37.226562 44.019531 L 37.199219 44.019531 C 37.199219 40.417969 40.121094 37.5 43.722656 37.5 C 45.542969 37.5 47.191406 38.246094 48.371094 39.449219 L 335.273438 326.347656 C 337.820312 328.898438 337.820312 333.027344 335.273438 335.574219 C 334 336.847656 332.332031 337.480469 330.664062 337.480469 L 330.664062 337.484375 L 43.722656 337.484375 C 40.121094 337.484375 37.199219 334.5625 37.199219 330.960938 C 37.199219 330.765625 37.210938 330.574219 37.226562 330.386719 Z M 50.21875 59.738281 L 50.21875 324.4375 L 314.917969 324.4375 Z M 50.21875 59.738281 " fill-opacity="1" fill-rule="nonzero"/></g></svg>